<svg width="56" height="40" viewBox="0 0 56 40" fill="none" xmlns="http://www.w3.org/2000/svg">
<path d="M47.8076 31.8522L46.8555 32.1581L46.8555 32.1581L47.8076 31.8522ZM49.4783 39.3639C49.9695 39.6163 50.5723 39.4226 50.8247 38.9314L54.937 30.9258C55.1893 30.4345 54.9956 29.8317 54.5044 29.5794C54.0131 29.327 53.4103 29.5207 53.158 30.0119L49.5026 37.128L42.3865 33.4726C41.8953 33.2203 41.2925 33.414 41.0401 33.9052C40.7877 34.3965 40.9814 34.9993 41.4727 35.2516L49.4783 39.3639ZM46.8555 32.1581L48.9831 38.7803L50.8872 38.1685L48.7596 31.5464L46.8555 32.1581ZM1.12578 3.04747C21.3893 0.477329 40.6076 12.7113 46.8555 32.1581L48.7596 31.5464C42.2172 11.1828 22.0929 -1.62794 0.874127 1.06336L1.12578 3.04747Z" fill="white"/>
</svg>
