<?xml version="1.0" encoding="UTF-8" standalone="no"?> <svg width="52" height="52" viewBox="0 0 52 52" fill="none" xmlns="http://www.w3.org/2000/svg">
<path d="M44.75 4.125C46.4759 4.125 47.875 5.52411 47.875 7.25V44.75C47.875 46.4759 46.4759 47.875 44.75 47.875H7.25C5.52411 47.875 4.125 46.4759 4.125 44.75V7.25C4.125 5.52411 5.52411 4.125 7.25 4.125H44.75ZM7.25 1C3.79822 1 1 3.79822 1 7.25V44.75C1 48.2018 3.79822 51 7.25 51H44.75C48.2018 51 51 48.2018 51 44.75V7.25C51 3.79822 48.2018 1 44.75 1H7.25Z" fill="black"/>
<path d="M28.9084 21.5872L21.749 22.4844L21.4927 23.6746L22.9026 23.9309C23.8181 24.1506 24.0012 24.4802 23.7998 25.3958L21.4927 36.2356C20.8884 39.0371 21.8223 40.3555 24.0195 40.3555C25.7224 40.3555 27.7 39.5681 28.5972 38.4878L28.8718 37.1877C28.2493 37.7371 27.3337 37.9568 26.7295 37.9568C25.8689 37.9568 25.5576 37.3525 25.7773 36.2905L28.9084 21.5872Z" fill="black"/>
<path d="M29.125 15.0625C29.125 16.7884 27.7259 18.1875 26 18.1875C24.2741 18.1875 22.875 16.7884 22.875 15.0625C22.875 13.3366 24.2741 11.9375 26 11.9375C27.7259 11.9375 29.125 13.3366 29.125 15.0625Z" fill="black"/>
<path d="M28.9084 21.5872L29.3975 21.6913L29.5439 21.0036L28.8463 21.091L28.9084 21.5872ZM21.749 22.4844L21.6869 21.9883L21.3349 22.0324L21.2602 22.3791L21.749 22.4844ZM21.4927 23.6746L21.0039 23.5693L20.8952 24.0741L21.4032 24.1665L21.4927 23.6746ZM22.9026 23.9309L23.0193 23.4447L23.0057 23.4415L22.992 23.439L22.9026 23.9309ZM23.7998 25.3958L23.3115 25.2883L23.3108 25.2917L23.7998 25.3958ZM21.4927 36.2356L21.9814 36.341L21.9817 36.3397L21.4927 36.2356ZM28.5972 38.4878L28.9818 38.8072L29.0608 38.7121L29.0864 38.5911L28.5972 38.4878ZM28.8718 37.1877L29.361 37.2911L29.6731 35.8139L28.541 36.8128L28.8718 37.1877ZM25.7773 36.2905L25.2883 36.1864L25.2877 36.1892L25.7773 36.2905ZM7.25 4.625H44.75V3.625H7.25V4.625ZM4.625 7.25C4.625 5.80025 5.80025 4.625 7.25 4.625V3.625C5.24797 3.625 3.625 5.24797 3.625 7.25H4.625ZM4.625 44.75V7.25H3.625V44.75H4.625ZM7.25 47.375C5.80025 47.375 4.625 46.1997 4.625 44.75H3.625C3.625 46.752 5.24797 48.375 7.25 48.375V47.375ZM44.75 47.375H7.25V48.375H44.75V47.375ZM47.375 44.75C47.375 46.1997 46.1997 47.375 44.75 47.375V48.375C46.752 48.375 48.375 46.752 48.375 44.75H47.375ZM47.375 7.25V44.75H48.375V7.25H47.375ZM44.75 4.625C46.1997 4.625 47.375 5.80025 47.375 7.25H48.375C48.375 5.24797 46.752 3.625 44.75 3.625V4.625ZM1.5 7.25C1.5 4.07436 4.07436 1.5 7.25 1.5V0.5C3.52208 0.5 0.5 3.52208 0.5 7.25H1.5ZM1.5 44.75V7.25H0.5V44.75H1.5ZM7.25 50.5C4.07436 50.5 1.5 47.9256 1.5 44.75H0.5C0.5 48.4779 3.52208 51.5 7.25 51.5V50.5ZM44.75 50.5H7.25V51.5H44.75V50.5ZM50.5 44.75C50.5 47.9256 47.9256 50.5 44.75 50.5V51.5C48.4779 51.5 51.5 48.4779 51.5 44.75H50.5ZM50.5 7.25V44.75H51.5V7.25H50.5ZM44.75 1.5C47.9256 1.5 50.5 4.07436 50.5 7.25H51.5C51.5 3.52208 48.4779 0.5 44.75 0.5V1.5ZM7.25 1.5H44.75V0.5H7.25V1.5ZM28.8463 21.091L21.6869 21.9883L21.8112 22.9805L28.9706 22.0833L28.8463 21.091ZM21.2602 22.3791L21.0039 23.5693L21.9815 23.7798L22.2378 22.5897L21.2602 22.3791ZM21.4032 24.1665L22.8131 24.4228L22.992 23.439L21.5821 23.1826L21.4032 24.1665ZM22.7859 24.4171C23.2302 24.5237 23.3197 24.6237 23.3417 24.6603C23.3674 24.703 23.4107 24.8373 23.3115 25.2883L24.2881 25.5032C24.3903 25.0387 24.4428 24.5505 24.1984 24.1445C23.9504 23.7325 23.4905 23.5578 23.0193 23.4447L22.7859 24.4171ZM23.3108 25.2917L21.0036 36.1315L21.9817 36.3397L24.2889 25.4998L23.3108 25.2917ZM21.0039 36.1302C20.6922 37.5754 20.7449 38.7678 21.2837 39.6145C21.8431 40.4936 22.8274 40.8555 24.0195 40.8555V39.8555C23.0144 39.8555 22.4332 39.5582 22.1274 39.0777C21.801 38.5648 21.6889 37.6973 21.9814 36.341L21.0039 36.1302ZM24.0195 40.8555C24.9428 40.8555 25.9265 40.6432 26.7982 40.2902C27.6646 39.9393 28.4633 39.4316 28.9818 38.8072L28.2125 38.1683C27.8338 38.6243 27.1951 39.0505 26.4228 39.3633C25.6556 39.674 24.7991 39.8555 24.0195 39.8555V40.8555ZM29.0864 38.5911L29.361 37.2911L28.3826 37.0844L28.108 38.3844L29.0864 38.5911ZM28.541 36.8128C28.0342 37.26 27.2489 37.4568 26.7295 37.4568V38.4568C27.4186 38.4568 28.4644 38.2141 29.2026 37.5627L28.541 36.8128ZM26.7295 37.4568C26.4245 37.4568 26.3306 37.3604 26.2852 37.2788C26.2142 37.1512 26.166 36.8799 26.267 36.3918L25.2877 36.1892C25.169 36.7631 25.1665 37.325 25.4114 37.765C25.6818 38.2511 26.1739 38.4568 26.7295 38.4568V37.4568ZM26.2664 36.3947L29.3975 21.6913L28.4194 21.483L25.2883 36.1864L26.2664 36.3947ZM28.625 15.0625C28.625 16.5122 27.4497 17.6875 26 17.6875V18.6875C28.002 18.6875 29.625 17.0645 29.625 15.0625H28.625ZM26 17.6875C24.5503 17.6875 23.375 16.5122 23.375 15.0625H22.375C22.375 17.0645 23.998 18.6875 26 18.6875V17.6875ZM23.375 15.0625C23.375 13.6128 24.5503 12.4375 26 12.4375V11.4375C23.998 11.4375 22.375 13.0605 22.375 15.0625H23.375ZM26 12.4375C27.4497 12.4375 28.625 13.6128 28.625 15.0625H29.625C29.625 13.0605 28.002 11.4375 26 11.4375V12.4375Z" fill="black"/>
</svg>
