<svg width="24" height="24" viewBox="0 0 24 24" fill="none" xmlns="http://www.w3.org/2000/svg">
<g id="badge_discount_icon_178995 1" clip-path="url(#clip0_3001_54)">
<g id="Vector">
<path d="M12.1 2C11.9 2 11.6 2.1 11.4 2.3L9.4 4.1L6.9 3.7C6.3 3.6 5.8 4 5.7 4.6L5.3 7.1L3 8.3C2.5 8.6 2.3 9.2 2.5 9.7L3.7 12L2.6 14.3C2.4 14.8 2.6 15.4 3 15.7L5.3 16.9L5.7 19.4C5.8 20 6.3 20.3 6.9 20.3L9.4 19.9L11.2 21.7C11.6 22.1 12.2 22.1 12.6 21.7L14.4 19.9L16.9 20.3C17.5 20.4 18 20 18.1 19.4L18.5 16.9L20.8 15.7C21.3 15.4 21.5 14.8 21.2 14.3L20.3 12L21.4 9.7C21.6 9.2 21.4 8.6 21 8.3L18.7 7.1L18.3 4.6C18.2 4 17.7 3.7 17.1 3.7L14.6 4.1L12.8 2.3C12.6 2.1 12.3 2 12.1 2ZM9.9 7C10.5 7 11 7.2 11.3 7.6C11.7 8 11.8 8.4 11.8 9V9.5C11.8 10.1 11.6 10.6 11.3 10.9C11 11.3 10.5 11.5 9.9 11.5C9.3 11.5 8.8 11.3 8.5 11C8.2 10.6 8 10.1 8 9.5V9C8 8.4 8.2 8 8.5 7.6C8.8 7.2 9.3 7 9.9 7ZM9.9 8C9.7 8 9.5 8.2 9.4 8.3C9.3 8.5 9.2 8.7 9.2 9V9.5C9.2 9.8 9.3 10 9.4 10.2C9.5 10.4 9.7 10.5 9.9 10.5C10.1 10.5 10.3 10.4 10.4 10.2C10.5 10 10.6 9.8 10.6 9.5V9C10.6 8.7 10.5 8.5 10.4 8.3C10.3 8.1 10.1 8 9.9 8ZM13.6 8L14.5 8.5L10.4 16.1L9.5 15.6L13.6 8ZM14.1 12.5C14.7 12.5 15.2 12.7 15.5 13.1C15.8 13.5 16 14 16 14.5V15C16 15.6 15.8 16.1 15.5 16.4C15.2 16.7 14.7 17 14.1 17C13.5 17 13 16.8 12.7 16.4C12.4 16 12.2 15.5 12.2 15V14.5C12.2 13.9 12.4 13.5 12.7 13.1C13 12.7 13.5 12.5 14.1 12.5ZM14.1 13.5C13.9 13.5 13.7 13.6 13.6 13.8C13.5 14 13.4 14.2 13.4 14.5V15C13.4 15.3 13.5 15.5 13.6 15.7C13.7 15.9 13.9 16 14.1 16C14.4 16 14.5 15.9 14.6 15.7C14.7 15.5 14.7 15.3 14.7 15V14.5C14.7 14.2 14.6 14 14.5 13.8C14.5 13.6 14.3 13.5 14.1 13.5Z" fill="#C4C4C4"/>
<path d="M12.1 2C11.9 2 11.6 2.1 11.4 2.3L9.4 4.1L6.9 3.7C6.3 3.6 5.8 4 5.7 4.6L5.3 7.1L3 8.3C2.5 8.6 2.3 9.2 2.5 9.7L3.7 12L2.6 14.3C2.4 14.8 2.6 15.4 3 15.7L5.3 16.9L5.7 19.4C5.8 20 6.3 20.3 6.9 20.3L9.4 19.9L11.2 21.7C11.6 22.1 12.2 22.1 12.6 21.7L14.4 19.9L16.9 20.3C17.5 20.4 18 20 18.1 19.4L18.5 16.9L20.8 15.7C21.3 15.4 21.5 14.8 21.2 14.3L20.3 12L21.4 9.7C21.6 9.2 21.4 8.6 21 8.3L18.7 7.1L18.3 4.6C18.2 4 17.7 3.7 17.1 3.7L14.6 4.1L12.8 2.3C12.6 2.1 12.3 2 12.1 2ZM9.9 7C10.5 7 11 7.2 11.3 7.6C11.7 8 11.8 8.4 11.8 9V9.5C11.8 10.1 11.6 10.6 11.3 10.9C11 11.3 10.5 11.5 9.9 11.5C9.3 11.5 8.8 11.3 8.5 11C8.2 10.6 8 10.1 8 9.5V9C8 8.4 8.2 8 8.5 7.6C8.8 7.2 9.3 7 9.9 7ZM9.9 8C9.7 8 9.5 8.2 9.4 8.3C9.3 8.5 9.2 8.7 9.2 9V9.5C9.2 9.8 9.3 10 9.4 10.2C9.5 10.4 9.7 10.5 9.9 10.5C10.1 10.5 10.3 10.4 10.4 10.2C10.5 10 10.6 9.8 10.6 9.5V9C10.6 8.7 10.5 8.5 10.4 8.3C10.3 8.1 10.1 8 9.9 8ZM13.6 8L14.5 8.5L10.4 16.1L9.5 15.6L13.6 8ZM14.1 12.5C14.7 12.5 15.2 12.7 15.5 13.1C15.8 13.5 16 14 16 14.5V15C16 15.6 15.8 16.1 15.5 16.4C15.2 16.7 14.7 17 14.1 17C13.5 17 13 16.8 12.7 16.4C12.4 16 12.2 15.5 12.2 15V14.5C12.2 13.9 12.4 13.5 12.7 13.1C13 12.7 13.5 12.5 14.1 12.5ZM14.1 13.5C13.9 13.5 13.7 13.6 13.6 13.8C13.5 14 13.4 14.2 13.4 14.5V15C13.4 15.3 13.5 15.5 13.6 15.7C13.7 15.9 13.9 16 14.1 16C14.4 16 14.5 15.9 14.6 15.7C14.7 15.5 14.7 15.3 14.7 15V14.5C14.7 14.2 14.6 14 14.5 13.8C14.5 13.6 14.3 13.5 14.1 13.5Z" fill="url(#paint0_linear_3001_54)"/>
</g>
</g>
<defs>
<linearGradient id="paint0_linear_3001_54" x1="25.6788" y1="-3.18518" x2="-9.87946" y2="1.39348" gradientUnits="userSpaceOnUse">
<stop offset="0.0737504" stop-color="#D9433E"/>
<stop offset="0.763435" stop-color="#F59D0E"/>
<stop offset="1" stop-color="#FF7601"/>
</linearGradient>
<clipPath id="clip0_3001_54">
<rect width="24" height="24" fill="white"/>
</clipPath>
</defs>
</svg>
