<?xml version="1.0" encoding="UTF-8" standalone="no"?> <svg id="Layer_1" data-name="Layer 1" xmlns="http://www.w3.org/2000/svg" xmlns:xlink="http://www.w3.org/1999/xlink" viewBox="0 0 512 512"><defs><style>.cls-1{fill:url(#linear-gradient);}.cls-2{fill:url(#linear-gradient-2);}.cls-3{fill:url(#linear-gradient-3);}.cls-4{fill:url(#linear-gradient-4);}</style><linearGradient id="linear-gradient" x1="54.286" y1="122.669" x2="379.752" y2="122.669" gradientUnits="userSpaceOnUse"><stop offset="0" stop-color="#37aa79"/><stop offset="1" stop-color="#398a70"/></linearGradient><linearGradient id="linear-gradient-2" x1="65.857" y1="298.667" x2="463.709" y2="298.667" gradientUnits="userSpaceOnUse"><stop offset="0" stop-color="#34ca82"/><stop offset="1" stop-color="#37a477"/></linearGradient><linearGradient id="linear-gradient-3" x1="283.786" y1="277.333" x2="482.513" y2="277.333" gradientUnits="userSpaceOnUse"><stop offset="0" stop-color="#fed200"/><stop offset="1" stop-color="#f59815"/></linearGradient><linearGradient id="linear-gradient-4" x1="298.143" y1="277.333" x2="340.163" y2="277.333" gradientUnits="userSpaceOnUse"><stop offset="0" stop-color="#fff"/><stop offset="1" stop-color="#f2ebe6"/></linearGradient></defs><title>Wallet</title><path class="cls-1" d="M372.75,60.977a31.976,31.976,0,0,0-25.844-7.232L81.328,96.581A58.432,58.432,0,0,0,32,154.5v26.833A10.667,10.667,0,0,0,42.667,192H373.333A10.667,10.667,0,0,0,384,181.333V85.339A31.944,31.944,0,0,0,372.75,60.977Z"/><path class="cls-2" d="M405.333,138.667H64a32.035,32.035,0,0,0-32,32V405.333a53.4,53.4,0,0,0,53.333,53.334h320a53.4,53.4,0,0,0,53.334-53.334V192A53.394,53.394,0,0,0,405.333,138.667Z"/><path class="cls-3" d="M458.667,224H320a53.334,53.334,0,0,0,0,106.667H458.667A21.357,21.357,0,0,0,480,309.333v-64A21.356,21.356,0,0,0,458.667,224Z"/><circle class="cls-4" cx="320" cy="277.333" r="21.333"/></svg>