<svg width="18" height="30" viewBox="0 0 18 30" fill="none" xmlns="http://www.w3.org/2000/svg">
<path d="M17.1091 0.890685C16.5158 0.296676 15.8123 0 14.9999 0H3.00017C2.18747 0 1.48445 0.296922 0.890686 0.890685C0.296923 1.48412 0 2.18739 0 2.99984V27C0 27.8124 0.296923 28.5156 0.890686 29.1091C1.48445 29.703 2.18747 30 3.00017 30H14.9999C15.8122 30 16.5158 29.7027 17.109 29.1091C17.7029 28.5156 17.9999 27.8124 17.9999 27V2.99984C17.9999 2.18739 17.7033 1.48445 17.1091 0.890685ZM7.12507 2.99984H10.8754C11.1254 2.99984 11.2501 3.12487 11.2501 3.37492C11.2501 3.62488 11.1254 3.75007 10.8754 3.75007H7.12507C6.8751 3.75007 6.75008 3.62488 6.75008 3.37492C6.75 3.12487 6.87502 2.99984 7.12507 2.99984ZM10.3246 28.3243C9.9572 28.6911 9.51588 28.8749 9.00011 28.8749C8.48458 28.8749 8.04326 28.6911 7.67598 28.3243C7.30871 27.9568 7.12507 27.5152 7.12507 27C7.12507 26.4842 7.30895 26.0428 7.67598 25.6756C8.04301 25.3088 8.48466 25.1245 9.00011 25.1245C9.51597 25.1245 9.95728 25.3088 10.3246 25.6756C10.6918 26.0428 10.8753 26.4842 10.8753 27C10.8753 27.5158 10.6916 27.9568 10.3246 28.3243ZM15.7503 23.2502C15.7503 23.453 15.6761 23.6294 15.5275 23.7775C15.3786 23.9259 15.2033 23.9997 15.0005 23.9997H3.00017C2.79708 23.9997 2.62132 23.9256 2.4729 23.7775C2.32448 23.6294 2.25027 23.453 2.25027 23.2502V6.75024C2.25027 6.54715 2.3244 6.37123 2.4729 6.22297C2.62141 6.0748 2.79708 6.00018 3.00017 6.00018H14.9999C15.2033 6.00018 15.3788 6.07447 15.5275 6.22297C15.6761 6.37131 15.7499 6.54715 15.7499 6.75024V23.2501H15.7503V23.2502Z" fill="url(#paint0_linear_459_2087)"/>
<defs>
<linearGradient id="paint0_linear_459_2087" x1="8.27673" y1="-20.7" x2="42.733" y2="-3.41416" gradientUnits="userSpaceOnUse">
<stop stop-color="#2BFFF2"/>
<stop offset="1" stop-color="#9921FF"/>
</linearGradient>
</defs>
</svg>
