<?xml version="1.0" encoding="UTF-8"?> <svg xmlns="http://www.w3.org/2000/svg" width="43" height="43" viewBox="0 0 43 43" fill="none"> <circle cx="21.2152" cy="21.2152" r="21.2152" fill="url(#paint0_linear)"></circle> <circle cx="21.2152" cy="21.2152" r="21.2152" fill="url(#paint1_linear)"></circle> <circle cx="21.5" cy="20.5" r="11" fill="white" stroke="white"></circle> <path d="M28 14L12 21.0337L16.1945 22.7554L17.6876 28.5601L20.437 25.805L24.9099 29L28 14ZM17.9055 23.4995L17.744 25.0129L17.124 22.6022L22.9646 18.488L17.9055 23.4995ZM23.1556 17.1818L16.5281 21.8504L14.4634 21.003L23.1556 17.1818ZM18.5428 26.3547L18.7316 24.5867L19.6514 25.2438L18.5428 26.3547ZM19.0906 23.6664L26.5796 16.2479L24.2867 27.378L19.0906 23.6664Z" fill="#FFC917"></path> <defs> <linearGradient id="paint0_linear" x1="21.2152" y1="0" x2="21.2152" y2="42.4304" gradientUnits="userSpaceOnUse"> <stop stop-color="#FFCEBD"></stop> <stop offset="1" stop-color="#E78A6B"></stop> </linearGradient> <linearGradient id="paint1_linear" x1="21.2152" y1="0" x2="21.2152" y2="42.4304" gradientUnits="userSpaceOnUse"> <stop stop-color="#FFCF33"></stop> <stop offset="0.90659" stop-color="#FFC300"></stop> </linearGradient> </defs> </svg> 