<svg width="71" height="51" viewBox="0 0 71 51" fill="none" xmlns="http://www.w3.org/2000/svg">
<path d="M66.9966 0.0192774C69.2098 0.379559 70.4119 1.68742 70.6031 3.94285L70.6086 6.81316V9.50149V12.2932V15.016V17.8077V20.5305V23.3222V26.045V28.8368V31.5595V34.3513V37.0741V39.8658L70.6072 42.5555L70.6086 45.4148C70.6371 46.2658 70.5953 47.1192 70.4832 47.9749C69.9712 49.7257 68.8031 50.722 66.9787 50.9637L64.2876 50.9706C63.2757 50.9927 62.6603 50.9904 62.4416 50.9637C60.4922 50.7248 59.3052 49.6104 58.8806 47.6206C58.8181 47.3301 58.8002 46.5774 58.8268 45.3624L58.8324 42.4921L58.8158 39.8024C58.87 38.8585 58.8719 37.9146 58.8213 36.9707L58.8158 34.2879C58.87 33.344 58.8719 32.4001 58.8213 31.4561L58.8158 28.7733C58.87 27.8294 58.8719 26.8855 58.8213 25.9416L58.8158 23.2588C58.87 22.3149 58.8719 21.371 58.8213 20.4271L58.8158 17.7443L58.8296 14.9195L58.8158 12.2298C58.87 11.2859 58.8719 10.342 58.8213 9.39809L58.8103 6.74423C58.8654 5.8279 58.8733 4.9079 58.8337 3.98421C58.9321 2.12031 59.8438 0.854727 61.5689 0.18747C62.4595 0.023873 63.357 -0.0326513 64.2614 0.0178984L66.9966 0.0192774Z" fill="url(#paint0_linear_2_959)"/>
<path d="M44.9441 11.7873C45.8438 11.7459 46.757 11.7634 47.6834 11.8397C49.5271 12.2183 50.6185 13.3364 50.9576 15.1939L50.9976 17.8077V20.4271V23.2533V26.114V28.7678V31.594V34.2824L50.9962 37.1237L50.9976 39.7969V42.6231V45.3114C51.0344 46.2415 50.9866 47.1771 50.8542 48.1183L50.3965 49.1605C49.9103 49.8535 49.2794 50.3765 48.5037 50.7294L47.6779 50.9293L44.8917 50.9927C44.0149 51.0184 43.1417 50.9762 42.2723 50.8659L41.3762 50.5447C40.7328 50.189 40.2043 49.7065 39.7907 49.0971L39.3716 48.0686C39.231 47.1762 39.1897 46.2824 39.2476 45.3872L39.2365 42.5955L39.2352 39.8865L39.2365 37.0906L39.2352 34.372L39.2365 31.5761L39.2352 28.8574L39.2365 26.0616L39.2352 23.3429L39.2365 20.5485L39.2338 17.6699L39.3027 15.016L39.6474 13.982C39.9663 13.3497 40.418 12.8327 41.0026 12.4311C41.3867 12.1875 41.7985 12.0055 42.2378 11.8851C43.1201 11.7657 44.0222 11.733 44.9441 11.7873Z" fill="url(#paint1_linear_2_959)"/>
<path d="M31.3825 28.8147L31.3866 31.6285V34.179L31.3811 37.2243L31.3866 39.6935V42.6231V45.4837C31.4105 46.2907 31.3756 47.1146 31.2818 47.9556L30.8931 48.962C30.5181 49.5897 30.0121 50.098 29.3752 50.4868L28.3646 50.8645C27.5002 51.0423 26.5821 50.9389 25.6998 50.9982L22.937 50.9238L22.2642 50.8066C21.4471 50.4426 20.7964 49.9206 20.3121 49.2405C20.0557 48.8204 19.8659 48.4115 19.7427 48.0135C19.6278 47.076 19.5878 46.1753 19.6228 45.3114V42.5886V39.7969V37.0741V34.2823V31.5596V28.7678C19.5676 27.8846 19.6453 27.0069 19.8558 26.1347L20.3727 25.1544C21.0216 24.3199 21.8534 23.7993 22.8681 23.5925C25.0252 23.4914 26.5531 23.4711 27.452 23.5318C29.4492 23.6678 30.7285 24.6889 31.2901 26.5951C31.382 26.9058 31.4128 27.6456 31.3825 28.8147Z" fill="url(#paint2_linear_2_959)"/>
<path d="M6.32452 35.2763C7.28956 35.2267 8.24127 35.309 9.17966 35.5231C10.7568 36.1775 11.6111 37.364 11.7425 39.0827C11.7673 39.4127 11.7862 39.7426 11.7991 40.0726L11.7756 42.6231L11.8101 45.2769C11.7853 46.2709 11.8583 47.4455 11.544 48.3306C11.067 49.6743 10.124 50.5171 8.71506 50.859C8.00783 51.0299 7.08966 50.95 6.29005 50.9927L3.67066 50.9693C1.84627 50.7386 0.672603 49.7487 0.149643 47.9997C0.0218902 47.1321 -0.024064 46.259 0.0117803 45.3803V42.4507V39.8313C-0.0387694 38.9205 0.15102 38.0354 0.581153 37.1761L1.05127 36.5971C1.73507 35.8526 2.58936 35.4284 3.61414 35.3246L6.32452 35.2763Z" fill="url(#paint3_linear_2_959)"/>
<defs>
<linearGradient id="paint0_linear_2_959" x1="60.446" y1="10.7162" x2="80.8607" y2="17.5772" gradientUnits="userSpaceOnUse">
<stop stop-color="#2BFFF2"/>
<stop offset="1" stop-color="#9921FF" stop-opacity="0.97"/>
</linearGradient>
<linearGradient id="paint1_linear_2_959" x1="40.8553" y1="20.009" x2="59.9152" y2="28.3187" gradientUnits="userSpaceOnUse">
<stop stop-color="#2BFFF2"/>
<stop offset="1" stop-color="#9921FF" stop-opacity="0.97"/>
</linearGradient>
<linearGradient id="paint2_linear_2_959" x1="21.2387" y1="29.2778" x2="37.5936" y2="39.4523" gradientUnits="userSpaceOnUse">
<stop stop-color="#2BFFF2"/>
<stop offset="1" stop-color="#9921FF" stop-opacity="0.97"/>
</linearGradient>
<linearGradient id="paint3_linear_2_959" x1="1.63617" y1="38.5686" x2="12.0266" y2="49.8901" gradientUnits="userSpaceOnUse">
<stop stop-color="#2BFFF2"/>
<stop offset="1" stop-color="#9921FF" stop-opacity="0.97"/>
</linearGradient>
</defs>
</svg>
