<?xml version="1.0" encoding="UTF-8"?> <svg xmlns="http://www.w3.org/2000/svg" width="43" height="43" viewBox="0 0 43 43" fill="none"> <circle cx="21.2152" cy="21.2152" r="21.2152" fill="url(#paint0_linear)"></circle> <circle cx="21.2152" cy="21.2152" r="21.2152" fill="url(#paint1_linear)"></circle> <path d="M21.5029 10H21.4971C15.1563 10 10 15.1577 10 21.5C10 24.0156 10.8108 26.3473 12.1893 28.2404L10.7561 32.5127L15.1764 31.0996C16.9949 32.3043 19.1641 33 21.5029 33C27.8437 33 33 27.8408 33 21.5C33 15.1592 27.8437 10 21.5029 10ZM28.1944 26.2394C27.917 27.0229 26.8159 27.6726 25.9376 27.8624C25.3367 27.9903 24.5518 28.0924 21.9097 26.997C18.5301 25.5969 16.3538 22.1627 16.1841 21.9399C16.0217 21.7171 14.8185 20.1214 14.8185 18.4712C14.8185 16.8209 15.6566 16.0174 15.9944 15.6724C16.2718 15.3892 16.7304 15.2598 17.1702 15.2598C17.3126 15.2598 17.4405 15.267 17.5555 15.2727C17.8933 15.2871 18.0629 15.3073 18.2857 15.8406C18.5632 16.509 19.2388 18.1593 19.3193 18.3289C19.4012 18.4985 19.4832 18.7285 19.3682 18.9513C19.2604 19.1813 19.1655 19.2834 18.9959 19.4789C18.8262 19.6744 18.6652 19.8239 18.4956 20.0338C18.3404 20.2163 18.165 20.4118 18.3605 20.7496C18.556 21.0803 19.2316 22.1828 20.2264 23.0683C21.5101 24.2111 22.5508 24.5763 22.9231 24.7315C23.2006 24.8465 23.5312 24.8192 23.7339 24.6036C23.9912 24.3261 24.3089 23.8661 24.6323 23.4133C24.8623 23.0884 25.1527 23.0482 25.4574 23.1632C25.7679 23.271 27.411 24.0832 27.7488 24.2514C28.0866 24.421 28.3094 24.5015 28.3914 24.6438C28.4719 24.7861 28.4719 25.4546 28.1944 26.2394Z" fill="white"></path> <defs> <linearGradient id="paint0_linear" x1="21.2152" y1="0" x2="21.2152" y2="42.4304" gradientUnits="userSpaceOnUse"> <stop stop-color="#FFCEBD"></stop> <stop offset="1" stop-color="#E78A6B"></stop> </linearGradient> <linearGradient id="paint1_linear" x1="21.2152" y1="0" x2="21.2152" y2="42.4304" gradientUnits="userSpaceOnUse"> <stop stop-color="#FFCF33"></stop> <stop offset="0.90659" stop-color="#FFC300"></stop> </linearGradient> </defs> </svg> 