<?xml version="1.0" encoding="UTF-8"?>
<svg xmlns="http://www.w3.org/2000/svg" xmlns:xlink="http://www.w3.org/1999/xlink" width="30px" height="30px" viewBox="0 0 30 30" version="1.1">
<g id="surface1">
<path style=" stroke:none;fill-rule:nonzero;fill:rgb(14.509804%,82.745098%,40%);fill-opacity:1;" d="M 15 30 C 23.285156 30 30 23.285156 30 15 C 30 6.714844 23.285156 0 15 0 C 6.714844 0 0 6.714844 0 15 C 0 23.285156 6.714844 30 15 30 Z M 15 30 "/>
<path style=" stroke:none;fill-rule:evenodd;fill:rgb(99.215686%,99.215686%,99.215686%);fill-opacity:1;" d="M 15.496094 23.34375 L 15.492188 23.34375 C 13.996094 23.34375 12.53125 22.96875 11.226562 22.257812 L 6.5 23.5 L 7.765625 18.878906 C 6.984375 17.523438 6.574219 15.992188 6.574219 14.417969 C 6.578125 9.5 10.578125 5.5 15.496094 5.5 C 17.878906 5.5 20.121094 6.429688 21.804688 8.117188 C 23.488281 9.800781 24.414062 12.042969 24.414062 14.425781 C 24.410156 19.34375 20.414062 23.34375 15.496094 23.34375 Z M 11.449219 20.644531 L 11.71875 20.804688 C 12.855469 21.480469 14.160156 21.839844 15.492188 21.839844 L 15.496094 21.839844 C 19.582031 21.839844 22.90625 18.511719 22.90625 14.425781 C 22.910156 12.445312 22.136719 10.582031 20.738281 9.179688 C 19.339844 7.78125 17.476562 7.007812 15.496094 7.007812 C 11.40625 7.007812 8.082031 10.332031 8.082031 14.417969 C 8.082031 15.820312 8.472656 17.183594 9.214844 18.363281 L 9.390625 18.644531 L 8.640625 21.382812 Z M 19.683594 16.347656 C 19.839844 16.421875 19.941406 16.472656 19.988281 16.546875 C 20.042969 16.640625 20.042969 17.085938 19.859375 17.605469 C 19.671875 18.128906 18.78125 18.601562 18.355469 18.667969 C 17.96875 18.722656 17.484375 18.746094 16.949219 18.578125 C 16.625 18.476562 16.210938 18.339844 15.679688 18.109375 C 13.589844 17.207031 12.179688 15.179688 11.910156 14.796875 C 11.890625 14.773438 11.878906 14.753906 11.871094 14.742188 C 11.753906 14.582031 10.960938 13.53125 10.960938 12.4375 C 10.960938 11.410156 11.464844 10.875 11.699219 10.625 C 11.714844 10.609375 11.730469 10.59375 11.742188 10.578125 C 11.945312 10.355469 12.1875 10.300781 12.335938 10.300781 C 12.484375 10.300781 12.632812 10.300781 12.765625 10.308594 C 12.78125 10.308594 12.796875 10.308594 12.8125 10.308594 C 12.945312 10.308594 13.105469 10.308594 13.265625 10.691406 C 13.328125 10.839844 13.417969 11.058594 13.511719 11.289062 C 13.703125 11.753906 13.914062 12.269531 13.953125 12.34375 C 14.007812 12.457031 14.046875 12.585938 13.972656 12.734375 C 13.960938 12.757812 13.949219 12.777344 13.941406 12.800781 C 13.882812 12.914062 13.84375 12.996094 13.746094 13.105469 C 13.710938 13.152344 13.671875 13.199219 13.632812 13.246094 C 13.558594 13.339844 13.480469 13.429688 13.414062 13.496094 C 13.300781 13.609375 13.1875 13.730469 13.316406 13.953125 C 13.445312 14.175781 13.894531 14.90625 14.554688 15.496094 C 15.269531 16.132812 15.886719 16.398438 16.199219 16.535156 C 16.261719 16.5625 16.3125 16.585938 16.347656 16.601562 C 16.570312 16.714844 16.699219 16.695312 16.832031 16.546875 C 16.960938 16.398438 17.386719 15.894531 17.535156 15.671875 C 17.683594 15.449219 17.832031 15.488281 18.039062 15.5625 C 18.242188 15.636719 19.339844 16.175781 19.5625 16.285156 C 19.605469 16.308594 19.644531 16.328125 19.683594 16.347656 Z M 19.683594 16.347656 "/>
</g>
</svg>
