<svg xmlns="http://www.w3.org/2000/svg" width="32" height="33" viewBox="0 0 32 33" fill="none">
	<path d="M15.991 1.5C13.0243 1.5 10.1242 2.37973 7.65745 4.02796C5.19071 5.67618 3.26813 8.01886 2.13281 10.7597C0.997497 13.5006 0.700447 16.5166 1.27922 19.4264C1.858 22.3361 3.28661 25.0088 5.3844 27.1066C7.48219 29.2044 10.1549 30.633 13.0646 31.2118C15.9744 31.7906 18.9904 31.4935 21.7313 30.3582C24.4721 29.2229 26.8148 27.3003 28.463 24.8336C30.1113 22.3668 30.991 19.4667 30.991 16.5C30.991 14.5302 30.603 12.5796 29.8492 10.7597C29.0954 8.93986 27.9905 7.28628 26.5976 5.8934C25.2047 4.50052 23.5511 3.39563 21.7313 2.64181C19.9114 1.88799 17.9608 1.5 15.991 1.5ZM20.761 24.228C20.705 24.3681 20.6197 24.4947 20.5108 24.5991C20.4018 24.7035 20.2718 24.7834 20.1295 24.8334C19.9871 24.8835 19.8357 24.9024 19.6853 24.8891C19.535 24.8757 19.3893 24.8303 19.258 24.756L15.1855 21.591L12.5725 24.003C12.5119 24.0478 12.4409 24.0766 12.3662 24.0868C12.2915 24.0971 12.2155 24.0883 12.145 24.0615L12.646 19.578L12.661 19.5915L12.6715 19.503C12.6715 19.503 19.999 12.831 20.2975 12.5475C20.6005 12.264 20.5 12.2025 20.5 12.2025C20.518 11.8575 19.9585 12.2025 19.9585 12.2025L10.249 18.4485L6.2065 17.0715C6.2065 17.0715 5.5855 16.8495 5.527 16.359C5.4655 15.873 6.226 15.609 6.226 15.609L22.3015 9.222C22.3015 9.222 23.623 8.634 23.623 9.609L20.761 24.228Z" fill="#2AABEE"/>
</svg>