<svg xmlns="http://www.w3.org/2000/svg" width="33" height="33" viewBox="0 0 33 33" fill="none">
	<rect x="0.799988" y="0.5" width="32" height="32" rx="6" fill="#32BA46"/>
	<path d="M21.5989 17.9923C21.56 17.9736 20.1019 17.2556 19.8428 17.1624C19.7371 17.1244 19.6238 17.0873 19.5032 17.0873C19.3063 17.0873 19.141 17.1854 19.0121 17.3782C18.8665 17.5947 18.4256 18.11 18.2893 18.264C18.2715 18.2843 18.2473 18.3086 18.2327 18.3086C18.2197 18.3086 17.994 18.2157 17.9257 18.186C16.3616 17.5066 15.1744 15.8728 15.0116 15.5973C14.9884 15.5576 14.9874 15.5397 14.9872 15.5397C14.9929 15.5187 15.0455 15.466 15.0726 15.4388C15.1521 15.3602 15.2381 15.2566 15.3213 15.1564C15.3608 15.1089 15.4002 15.0614 15.439 15.0166C15.5598 14.8761 15.6136 14.767 15.6759 14.6406L15.7086 14.575C15.8608 14.2726 15.7308 14.0174 15.6888 13.935C15.6543 13.866 15.0386 12.3802 14.9732 12.2241C14.8158 11.8474 14.6078 11.672 14.3188 11.672C14.2919 11.672 14.3188 11.672 14.2063 11.6767C14.0693 11.6825 13.3236 11.7807 12.9938 11.9886C12.6441 12.209 12.0526 12.9117 12.0526 14.1476C12.0526 15.2599 12.7584 16.31 13.0615 16.7095C13.069 16.7195 13.0828 16.74 13.1029 16.7693C14.2635 18.4643 15.7103 19.7204 17.177 20.3063C18.589 20.8703 19.2576 20.9355 19.6378 20.9355H19.6378C19.7976 20.9355 19.9254 20.923 20.0382 20.9119L20.1098 20.905C20.5976 20.8618 21.6695 20.3063 21.9134 19.6288C22.1054 19.095 22.1561 18.5119 22.0283 18.3003C21.9408 18.1564 21.7899 18.084 21.5989 17.9923Z" fill="white"/>
	<path d="M16.9775 6.5C11.5609 6.5 7.15413 10.8736 7.15413 16.2495C7.15413 17.9883 7.61945 19.6903 8.50095 21.1799L6.81374 26.1569C6.78231 26.2497 6.80569 26.3523 6.87432 26.4221C6.92387 26.4727 6.99108 26.5 7.05971 26.5C7.08601 26.5 7.11251 26.496 7.13835 26.4878L12.328 24.8387C13.7481 25.5975 15.3532 25.998 16.9776 25.998C22.3937 25.9981 26.8 21.6249 26.8 16.2495C26.8 10.8736 22.3937 6.5 16.9775 6.5ZM16.9775 23.9671C15.449 23.9671 13.9685 23.5258 12.6959 22.6907C12.6532 22.6626 12.6035 22.6482 12.5535 22.6482C12.5271 22.6482 12.5006 22.6522 12.4748 22.6604L9.8751 23.4868L10.7143 21.0108C10.7415 20.9307 10.7279 20.8423 10.6779 20.774C9.7088 19.4499 9.19653 17.8854 9.19653 16.2495C9.19653 11.9935 12.6871 8.53091 16.9774 8.53091C21.2673 8.53091 24.7574 11.9935 24.7574 16.2495C24.7575 20.5051 21.2674 23.9671 16.9775 23.9671Z" fill="white"/>
</svg>