<svg width="0" height="0" class="hidden">
	<symbol role="presentation"
		xmlns="http://www.w3.org/2000/svg" viewBox="0 0 100 100" id="insta">
		<path d="M66.9644 10H33.04C20.3227 10 10 20.3227 10 32.9573V67.1167C10 79.6816 20.3227 90 33.04 90H66.96C79.6816 90 90 79.6816 90 67.0384V32.9616C90.0044 20.3227 79.6816 10 66.9644 10ZM29.2 50.0022C29.2 38.5083 38.5257 29.2 50.0022 29.2C61.4786 29.2 70.8 38.5083 70.8 50.0022C70.8 61.4961 61.4743 70.8 50.0022 70.8C38.5257 70.8 29.2 61.4961 29.2 50.0022ZM72.8854 31.2027C70.2079 31.2027 68.0789 29.0824 68.0789 26.4049C68.0789 23.7273 70.2035 21.6027 72.8854 21.6027C75.5586 21.6027 77.6833 23.7273 77.6833 26.4049C77.6833 29.0824 75.5586 31.2027 72.8854 31.2027Z"></path>
		<path d="M50.0022 36.4011C42.4659 36.4011 36.4011 42.4876 36.4011 50.0022C36.4011 57.5124 42.4659 63.6033 50.0022 63.6033C57.5429 63.6033 63.6033 57.5124 63.6033 50.0022C63.6033 42.492 57.4514 36.4011 50.0022 36.4011Z"></path>
	</symbol>
	<symbol role="presentation"
		xmlns="http://www.w3.org/2000/svg" viewBox="0 0 100 100" id="vkontakte">
		<path d="M53.7512 76.4147C25.0516 76.4147 8.68207 56.7395 8 24H22.376C22.8482 48.03 33.4463 58.2086 41.8411 60.3073V24H55.3782V44.7245C63.668 43.8326 72.3765 34.3885 75.3146 24H88.8514C86.5954 36.802 77.1513 46.2461 70.4355 50.1287C77.1513 53.2767 87.9076 61.5141 92 76.4147H77.0988C73.8983 66.446 65.9241 58.7333 55.3782 57.684V76.4147H53.7512Z"></path>
	</symbol>
	<symbol role="presentation"
		xmlns="http://www.w3.org/2000/svg" viewBox="0 0 100 100" id="f">
		<path d="M43.3077 14.1204C46.4333 11.1506 50.8581 10.1412 55.0516 10.0244C59.4777 9.98539 63.9037 10.0049 68.3285 10.0049C68.348 14.683 68.348 19.3416 68.3285 24.0197C65.4757 24.0197 62.6021 24.0197 59.7492 24.0197C57.9435 23.9028 56.0805 25.2811 55.7505 27.0868C55.7116 30.2125 55.7311 33.3369 55.7311 36.4625C59.9233 36.482 64.1168 36.4625 68.3091 36.482C67.9986 41.0042 67.436 45.5082 66.7761 49.9732C63.0684 50.0122 59.3608 49.9732 55.6531 49.9927C55.6142 63.3281 55.6726 76.6439 55.6336 89.9805C50.1203 90 44.6276 89.961 39.1142 90C39.0168 76.6646 39.1142 63.3293 39.0558 49.9927C36.377 49.9732 33.6788 50.0122 31 49.9732C31.0195 45.4887 31 41.0054 31 36.5404C33.6788 36.5015 36.377 36.5404 39.0558 36.521C39.1337 32.1728 38.9778 27.8052 39.1337 23.4571C39.4259 19.9833 40.7263 16.5082 43.3077 14.1204Z"></path>
	</symbol>
	<symbol version="1.1" id="triangle"
		xmlns="http://www.w3.org/2000/svg" viewBox="0 0 11 11">
		<path id="rect3338" d="M5.5174,1.2315
	C5.3163,1.2253,5.1276,1.328,5.024,1.5l-4,6.6598C0.8013,8.5293,1.0679,8.9999,1.5,9h8c0.4321-0.0001,0.6987-0.4707,0.476-0.8402
	l-4-6.6598C5.8787,1.3386,5.706,1.2375,5.5174,1.2315z"></path>
	</symbol>
	<symbol xmlns="http://www.w3.org/2000/svg" fill="none" stroke="currentColor" stroke-width="2" stroke-linecap="round" stroke-linejoin="round" viewBox="0 0 24 24" id="minus">
		<line x1="5" y1="12" x2="19" y2="12"></line>
	</symbol>
	<symbol xmlns="http://www.w3.org/2000/svg" fill="none" stroke="currentColor" stroke-width="2" stroke-linecap="round" stroke-linejoin="round" viewBox="0 0 24 24" id="plus">
		<line x1="12" y1="5" x2="12" y2="19"></line>
		<line x1="5" y1="12" x2="19" y2="12"></line>
	</symbol>
	<symbol role="presentation"
		xmlns="http://www.w3.org/2000/svg" viewBox="0 0 100 100" id="facebook">
		<path fill-rule="evenodd" clip-rule="evenodd" d="M50 100c27.6142 0 50-22.3858 50-50S77.6142 0 50 0 0 22.3858 0 50s22.3858 50 50 50Zm3.431-73.9854c-2.5161.0701-5.171.6758-7.0464 2.4577-1.5488 1.4326-2.329 3.5177-2.5044 5.602-.0534 1.4908-.0458 2.9855-.0382 4.4796.0058 1.1205.0115 2.2407-.0085 3.3587-.6888.005-1.3797.0036-2.0709.0021-.9218-.0019-1.8441-.0038-2.7626.0096 0 .8921.0013 1.7855.0026 2.6797.0026 1.791.0052 3.5853-.0026 5.3799.9185.0134 1.8409.0115 2.7627.0096.6912-.0015 1.382-.0029 2.0708.0021.0155 3.5565.0127 7.1128.0098 10.669-.0036 4.4452-.0072 8.8903.0252 13.3354 1.8903-.0134 3.7765-.0115 5.6633-.0095 1.4152.0014 2.8306.0028 4.2484-.0022.0117-4.0009.0088-7.9986.0058-11.9963-.0029-3.9979-.0058-7.9957.0059-11.9964.9533-.005 1.9067-.0036 2.86-.0021 1.2713.0019 2.5425.0038 3.8137-.0096.396-2.679.7335-5.3814.9198-8.0947-1.2576-.0058-2.5155-.0058-3.7734-.0058-1.2578 0-2.5157 0-3.7734-.0059 0-.4689-.0007-.9378-.0014-1.4066-.0022-1.4063-.0044-2.8123.0131-4.2188.198-1.0834 1.3158-1.9104 2.3992-1.8403h5.1476c.0117-2.8069.0117-5.602 0-8.4089-.6636 0-1.3273-.0007-1.9911-.0014-1.9915-.0022-3.9832-.0044-5.975.0131Z"></path>
	</symbol>
	<symbol role="presentation"
		xmlns="http://www.w3.org/2000/svg" viewBox="0 0 100 100" id="instagram">
		<path fill-rule="evenodd" clip-rule="evenodd" d="M50 100C77.6142 100 100 77.6142 100 50C100 22.3858 77.6142 0 50 0C22.3858 0 0 22.3858 0 50C0 77.6142 22.3858 100 50 100ZM25 39.3918C25 31.4558 31.4566 25 39.3918 25H60.6082C68.5442 25 75 31.4566 75 39.3918V60.8028C75 68.738 68.5442 75.1946 60.6082 75.1946H39.3918C31.4558 75.1946 25 68.738 25 60.8028V39.3918ZM36.9883 50.0054C36.9883 42.8847 42.8438 37.0922 50.0397 37.0922C57.2356 37.0922 63.0911 42.8847 63.0911 50.0054C63.0911 57.1252 57.2356 62.9177 50.0397 62.9177C42.843 62.9177 36.9883 57.1252 36.9883 50.0054ZM41.7422 50.0054C41.7422 54.5033 45.4641 58.1638 50.0397 58.1638C54.6153 58.1638 58.3372 54.5041 58.3372 50.0054C58.3372 45.5066 54.6145 41.8469 50.0397 41.8469C45.4641 41.8469 41.7422 45.5066 41.7422 50.0054ZM63.3248 39.6355C65.0208 39.6355 66.3956 38.2606 66.3956 36.5646C66.3956 34.8687 65.0208 33.4938 63.3248 33.4938C61.6288 33.4938 60.2539 34.8687 60.2539 36.5646C60.2539 38.2606 61.6288 39.6355 63.3248 39.6355Z"></path>
	</symbol>
	<symbol role="presentation"
		xmlns="http://www.w3.org/2000/svg" viewBox="0 0 100 100" id="vk">
		<path fill-rule="evenodd" clip-rule="evenodd" d="M50 100c27.614 0 50-22.386 50-50S77.614 0 50 0 0 22.386 0 50s22.386 50 50 50ZM25 34c.406 19.488 10.15 31.2 27.233 31.2h.968V54.05c6.278.625 11.024 5.216 12.93 11.15H75c-2.436-8.87-8.838-13.773-12.836-15.647C66.162 47.242 71.783 41.62 73.126 34h-8.058c-1.749 6.184-6.932 11.805-11.867 12.336V34h-8.057v21.611C40.147 54.362 33.838 48.304 33.556 34H25Z"></path>
	</symbol>
	<symbol xmlns="http://www.w3.org/2000/svg" viewBox="0 0 18 10" id="arrow-drop">
		<g clip-path="url(#clip0_288_23)">
			<path fill-rule="evenodd" clip-rule="evenodd" d="M3.18003 0.414194L9.00003 5.95705L14.82 0.414195C15.405 -0.142948 16.35 -0.142948 16.935 0.414195C17.52 0.971338 17.52 1.87134 16.935 2.42848L10.05 8.98562C9.46503 9.54277 8.52003 9.54277 7.93503 8.98562L1.05003 2.42848C0.465031 1.87134 0.465031 0.971337 1.05003 0.414194C1.63503 -0.128663 2.59503 -0.142948 3.18003 0.414194Z"></path>
		</g>
		<defs>
			<clipPath id="clip0_288_23">
				<rect width="10" height="18" fill="white" transform="translate(18) rotate(90)"></rect>
			</clipPath>
		</defs>
	</symbol>
	<symbol xmlns="http://www.w3.org/2000/svg" viewBox="0 0 64 64" id="magnifier">
		<title>1</title>
		<g id="Layer_21">
			<path d="M39,24.27a14.71,14.71,0,0,0-14.7-14.7,2,2,0,0,0,0,4A10.71,10.71,0,0,1,35,24.27a2,2,0,0,0,4,0Z"></path>
			<path d="M61.41,58.59,41.36,38.53a22.3,22.3,0,1,0-2.83,2.83L58.59,61.41a2,2,0,0,0,2.83-2.83ZM6,24.27A18.27,18.27,0,1,1,24.27,42.54,18.29,18.29,0,0,1,6,24.27Z"></path>
		</g>
	</symbol>
</svg>